<svg xmlns="http://www.w3.org/2000/svg" width="420" height="260" viewBox="0 0 420 260" role="img" aria-labelledby="title desc">
<title id="title">Healthy meal illustration</title>
<desc id="desc">A simple plate with rice, vegetables, and protein.</desc>
<rect width="420" height="260" rx="24" fill="#f6fbff"/>
<circle cx="210" cy="130" r="92" fill="#ffffff" stroke="#0b5d7a" stroke-width="5"/>
<path d="M210 130 L210 42 A88 88 0 0 1 292 98 Z" fill="#f4c542"/>
<path d="M210 130 L292 98 A88 88 0 0 1 278 181 Z" fill="#2f9e75"/>
<path d="M210 130 L278 181 A88 88 0 0 1 122 181 Z" fill="#e6efe9"/>
<path d="M210 130 L122 181 A88 88 0 0 1 210 42 Z" fill="#c7e9d8"/>
<circle cx="261" cy="138" r="12" fill="#0b5d7a" opacity="0.55"/>
<circle cx="243" cy="160" r="9" fill="#0b5d7a" opacity="0.45"/>
<text x="32" y="232" font-family="Arial, sans-serif" font-size="22" fill="#0b2f4a">Balanced Meal / وجبة متوازنة</text>
</svg>
